<?xml version="1.0" encoding="UTF-8" standalone="no"?>
<svg
   xmlns:dc="http://purl.org/dc/elements/1.1/"
   xmlns:cc="http://creativecommons.org/ns#"
   xmlns:rdf="http://www.w3.org/1999/02/22-rdf-syntax-ns#"
   xmlns:svg="http://www.w3.org/2000/svg"
   xmlns="http://www.w3.org/2000/svg"
   xmlns:sodipodi="http://sodipodi.sourceforge.net/DTD/sodipodi-0.dtd"
   xmlns:inkscape="http://www.inkscape.org/namespaces/inkscape"
   viewBox="0 0 283.46399 216.54131"
   height="216.54132"
   width="283.46399"
   xml:space="preserve"
   id="svg2"
   version="1.1"
   inkscape:version="0.91 r13725"
   sodipodi:docname="WG-mono-rev.svg"><sodipodi:namedview
     pagecolor="#ffffff"
     bordercolor="#666666"
     borderopacity="1"
     objecttolerance="10"
     gridtolerance="10"
     guidetolerance="10"
     inkscape:pageopacity="0"
     inkscape:pageshadow="2"
     inkscape:window-width="1920"
     inkscape:window-height="1018"
     id="namedview3355"
     showgrid="false"
     fit-margin-top="0"
     fit-margin-left="0"
     fit-margin-right="0"
     fit-margin-bottom="0"
     inkscape:zoom="4.2779117"
     inkscape:cx="170.25712"
     inkscape:cy="85.492412"
     inkscape:window-x="-8"
     inkscape:window-y="-8"
     inkscape:window-maximized="1"
     inkscape:current-layer="svg2" /><metadata
     id="metadata8"><rdf:RDF><cc:Work
         rdf:about=""><dc:format>image/svg+xml</dc:format><dc:type
           rdf:resource="http://purl.org/dc/dcmitype/StillImage" /><dc:title></dc:title></cc:Work></rdf:RDF></metadata><defs
     id="defs6"><clipPath
       id="clipPath20"
       clipPathUnits="userSpaceOnUse"><path
         id="path18"
         d="M 0,1624.06 0,0 l 2125.98,0 0,1624.06 z"
         inkscape:connector-curvature="0" /></clipPath></defs><path
     id="path22"
     style="fill:#000000;fill-opacity:1;fill-rule:nonzero;stroke:none"
     d="m 20.448933,18.764002 0.1464,0 5.720266,33.865332 7.028133,0 7.777067,-52.19066526 -7.917733,0 -3.595733,33.93866626 -0.143334,0 -6.080133,-33.93866626 -5.7172,0 L 11.8,33.565335 l -0.14636,0 L 7.9145865,0.43866874 0,0.43866874 7.7651065,52.629334 l 7.0400935,0 5.643733,-33.865332"
     inkscape:connector-curvature="0" /><path
     id="path24"
     style="fill:#000000;fill-opacity:1;fill-rule:nonzero;stroke:none"
     d="m 50.773465,12.750668 c 0,-3.5893328 2.3432,-5.2733328 5.055734,-5.2733328 2.715066,0 5.064533,1.684 5.064533,5.2733328 l 0,27.566666 c 0,3.588 -2.349467,5.272 -5.064533,5.272 -2.712534,0 -5.055734,-1.684 -5.055734,-5.272 z m 5.055734,40.317333 c 6.083333,0 12.537466,-4.248 12.537466,-12.750667 l 0,-27.566666 C 68.366665,4.2506686 61.912532,2.0801999e-6 55.829199,2.0801999e-6 49.746399,2.0801999e-6 43.291732,4.2506686 43.291732,12.750668 l 0,27.566666 c 0,8.502667 6.454667,12.750667 12.537467,12.750667"
     inkscape:connector-curvature="0" /><path
     id="path26"
     style="fill:#000000;fill-opacity:1;fill-rule:nonzero;stroke:none"
     d="m 80.163998,12.750668 c 0,-3.5893328 2.343867,-5.2733328 5.061467,-5.2733328 2.709999,0 5.053199,1.684 5.053199,5.2733328 l 0,27.566666 c 0,3.588 -2.3432,5.272 -5.053199,5.272 -2.7176,0 -5.061467,-1.684 -5.061467,-5.272 z m 5.061467,40.317333 c 6.083333,0 12.534933,-4.248 12.534933,-12.750667 l 0,-27.566666 C 97.760398,4.2506686 91.308798,2.0801999e-6 85.225465,2.0801999e-6 79.140131,2.0801999e-6 72.697332,4.2506686 72.697332,12.750668 l 0,27.566666 c 0,8.502667 6.442799,12.750667 12.528133,12.750667"
     inkscape:connector-curvature="0" /><path
     id="path28"
     style="fill:#000000;fill-opacity:1;fill-rule:nonzero;stroke:none"
     d="m 110.00213,7.4773352 3.44107,0 c 4.40373,0 5.7964,2.3426666 5.7964,6.4453328 l 0,25.142666 c 0,4.476 -1.61827,6.524 -5.7964,6.524 l -3.44107,0 z m 16.71293,30.8559988 0,-24.410666 c 0,-8.4279994 -4.69266,-13.48399926 -13.11973,-13.48399926 l -11.0688,0 0,52.19066526 10.39853,0 c 8.80147,0 13.79,-4.616 13.79,-14.296"
     inkscape:connector-curvature="0" /><path
     id="path30"
     style="fill:#000000;fill-opacity:1;fill-rule:nonzero;stroke:none"
     d="m 153.71866,53.068001 c 6.088,0 12.53467,-4.248 12.53467,-12.750667 l 0,-16.423999 -13.416,0 0,6.598666 5.94,0 0,9.825333 c 0,3.588 -2.34667,5.272 -5.05867,5.272 -2.712,0 -5.05866,-1.684 -5.05866,-5.272 l 0,-27.566666 c 0,-3.5906661 2.34666,-5.2733328 5.05866,-5.2733328 2.712,0 5.05867,1.6826667 5.05867,5.2733328 l 0,2.641334 7.476,0 0,-2.641334 C 166.25333,4.2506686 159.80666,2.0802e-6 153.71866,2.0802e-6 147.632,2.0802e-6 141.17733,4.2506686 141.17733,12.750668 l 0,27.566666 c 0,8.502667 6.45467,12.750667 12.54133,12.750667"
     inkscape:connector-curvature="0" /><path
     id="path32"
     style="fill:#000000;fill-opacity:1;fill-rule:nonzero;stroke:none"
     d="m 178.492,7.4773352 3.89066,0 c 5.496,0 6.376,2.8546668 6.376,8.1333328 0,5.202667 -0.81066,8.136 -6.01866,8.136 l -4.248,0 z m 0,22.8719998 4.47066,0 6.96934,22.279999 7.91466,0 L 189.78,28.804001 c 4.76933,-2.634666 6.44933,-7.035999 6.44933,-13.042666 0,-10.1173331 -4.32533,-15.32266626 -13.19067,-15.32266626 l -12.01733,0 0,52.19066526 7.47067,0 0,-22.279999"
     inkscape:connector-curvature="0" /><path
     id="path34"
     style="fill:#000000;fill-opacity:1;fill-rule:nonzero;stroke:none"
     d="m 207.45199,12.750668 c 0,-3.5893328 2.34667,-5.2733328 5.06,-5.2733328 2.70534,0 5.052,1.684 5.052,5.2733328 l 0,27.566666 c 0,3.588 -2.34666,5.272 -5.052,5.272 -2.71333,0 -5.06,-1.684 -5.06,-5.272 z m 5.06,40.317333 c 6.08267,0 12.52534,-4.248 12.52534,-12.750667 l 0,-27.566666 C 225.03733,4.2506686 218.59466,2.0801999e-6 212.51199,2.0801999e-6 206.42266,2.0801999e-6 199.97333,4.2506686 199.97333,12.750668 l 0,27.566666 c 0,8.502667 6.44933,12.750667 12.53866,12.750667"
     inkscape:connector-curvature="0" /><path
     id="path36"
     style="fill:#000000;fill-opacity:1;fill-rule:nonzero;stroke:none"
     d="m 241.90266,53.068001 c 6.668,0 12.09467,-5.348 12.09467,-12.172 l 0,-40.45733226 -7.47867,0 0,39.72933226 c 0,3.66 -1.97733,5.421333 -4.616,5.421333 -2.63733,0 -4.624,-1.761333 -4.624,-5.421333 l 0,-39.72933226 -7.46667,0 0,40.45733226 c 0,6.824 5.41867,12.172 12.09067,12.172"
     inkscape:connector-curvature="0" /><path
     id="path38"
     style="fill:#000000;fill-opacity:1;fill-rule:nonzero;stroke:none"
     d="m 270.27199,25.213335 -3.59066,0 0,-17.7359998 3.88666,0 c 5.86534,0 5.86534,4.0306668 5.86534,8.9439998 0,5.201333 -0.0787,8.792 -6.16134,8.792 z m 9.828,-21.1119997 c -2.572,-2.7093333 -5.58,-3.66266656 -9.68533,-3.66266656 l -11.212,0 0,52.19066526 7.47867,0 0,-20.379999 3.81333,0 c 5.492,0 8.79467,-2.050667 10.84267,-5.426667 1.76533,-2.854667 2.12666,-5.934666 2.12666,-10.478666 0,-6.228 -0.80666,-9.5280001 -3.364,-12.2426667"
     inkscape:connector-curvature="0" /><path
     id="path40"
     style="fill:#2;fill-opacity:1;fill-rule:nonzero;stroke:none"
     d="m 164.23866,180.69706 51.86,-34.98119 -36.15333,61.86661 z m -80.688129,4.65467 32.981729,-11.9812 -19.991062,34.21195 z M 220.45199,71.561334 l 38.97734,0 -12.97867,22.213866 z m -2.99333,0.228 27.90267,23.844666 -23.06934,39.4792 z M 170.304,142.9304 l 46.13333,0 -53.07867,35.80413 z m -2.168,0 -6.47334,33.35786 L 142.172,142.9304 Z m -51.66467,28.21613 -34.006265,12.35213 -23.060933,-39.47093 z m -54.456798,-28.21613 72.304128,0 -15.71133,26.8896 z M 70.548398,109.3216 54.834932,136.21067 18.6844,74.34 Z m -0.393733,-2.81933 -51.811999,-34.940936 44.809466,0 z m 2.138533,-0.1688 -6.968133,-34.772136 27.286399,0 z M 116.1792,98.4476 100.4656,71.561334 l 72.30106,0 z m 67.69413,-26.886266 31.42666,0 4.72667,61.870666 z m 14.35867,33.536796 19.49333,33.35107 -25.95733,0 z M 132.69173,135.67053 80.827598,100.69187 96.541198,73.8 Z m 18.5296,-21.6708 -12.976,22.20827 -19.49067,-33.3516 z M 152.30666,112.1408 117.45573,100.17987 175.376,72.658667 Z M 179.94533,73.8 l 15.712,26.89187 -51.86533,34.9812 z m -101.693199,31.3012 6.450534,33.24533 2.092133,-0.39733 -6.846933,-35.29853 53.082395,35.79853 -74.265728,0 z m 65.207869,33.348 53.08,-35.79853 -6.94267,35.79853 z M 9.2041598,67.077334 96.541198,216.54133 138.24533,145.172 l 41.7,71.36933 87.33733,-149.463996 -258.0785002,0"
     inkscape:connector-curvature="0" /></svg>